<?xml version="1.0" encoding="UTF-8" standalone="no"?>
<svg width="480px" height="292px" viewBox="0 0 480 292" version="1.1" xmlns="http://www.w3.org/2000/svg" xmlns:xlink="http://www.w3.org/1999/xlink">
    <!-- Generator: Sketch 3.8.3 (29802) - http://www.bohemiancoding.com/sketch -->
    <title>Group 2</title>
    <desc>Created with Sketch.</desc>
    <defs></defs>
    <g id="Welcome" stroke="none" stroke-width="1" fill="none" fill-rule="evenodd">
        <g id="Desktop-HD" transform="translate(-252.000000, -169.000000)">
            <g id="Group-2" transform="translate(252.000000, 169.000000)">
                <g id="girl-(2)" transform="translate(0.000000, 7.290565)">
                    <g id="Capa_1">
                        <g id="Group">
                            <path d="M71.4162632,181.356318 L71.4162632,86.8687106 L25.3391397,86.8687106 C25.3391397,86.8687106 16.5356007,125.968208 36.917024,144.950334 C36.9161259,144.950334 27.1659504,181.356318 71.4162632,181.356318 L71.4162632,181.356318 Z" id="Shape" fill="#9E773D"></path>
                            <path d="M72.3045207,181.356318 L72.3045207,86.8687106 L118.380746,86.8687106 C118.380746,86.8687106 127.185183,125.968208 106.802862,144.950334 C106.802862,144.950334 116.553935,181.356318 72.3045207,181.356318 L72.3045207,181.356318 Z" id="Shape" fill="#9E773D"></path>
                            <g transform="translate(7.185096, 28.740385)">
                                <g>
                                    <rect id="Rectangle-path" fill="#FDCC9B" x="51.0303492" y="111.457008" width="26.4007377" height="29.5693651"></rect>
                                    <path d="M51.0303492,114.939983 C51.0303492,114.939983 62.1349153,122.011914 77.4310868,120.37461 L77.4310868,111.457008 L51.0303492,111.457008 L51.0303492,114.939983 L51.0303492,114.939983 Z" id="Shape" fill="#FCBC85"></path>
                                    <ellipse id="Oval" fill="#FCBC85" cx="12.9610153" cy="65.607113" rx="12.8819793" ry="14.6971142"></ellipse>
                                    <ellipse id="Oval" fill="#FCBC85" cx="115.499523" cy="65.607113" rx="12.8819793" ry="14.6971142"></ellipse>
                                    <path d="M115.447431,37.5358404 C115.447431,15.8880439 99.606988,0.046703125 64.2311671,0.046703125 C28.8535499,0.046703125 13.0140054,15.8871457 13.0140054,37.5358404 C13.0140054,59.1845352 9.31817157,116.209949 64.2311671,116.209949 C119.143264,116.209949 115.447431,59.1845352 115.447431,37.5358404 L115.447431,37.5358404 Z" id="Shape" fill="#FDCC9B"></path>
                                    <g transform="translate(29.638522, 43.110577)">
                                        <g transform="translate(3.592548, 12.573918)" id="Oval">
                                            <ellipse fill="#3B2519" cx="6.05344351" cy="6.40371695" rx="5.54419982" ry="6.07230439"></ellipse>
                                            <ellipse fill="#FFFFFF" cx="3.63565865" cy="3.72277794" rx="1.65796094" ry="1.65796094"></ellipse>
                                        </g>
                                        <path d="M0.775990385,5.88549189 C3.39765234,6.88871094 7.60722055,2.47436749 17.2433326,6.31480138 C19.0000886,7.01534826 20.0491127,0.326023738 9.71963882,0.326023738 C0.775990385,0.326023738 -0.808323317,5.2792494 0.775990385,5.88549189 L0.775990385,5.88549189 Z" id="Shape" fill="#BF904B"></path>
                                        <g transform="translate(53.888221, 12.573918)" id="Oval">
                                            <ellipse fill="#3B2519" cx="6.33545853" cy="6.40371695" rx="5.54419982" ry="6.07230439"></ellipse>
                                            <ellipse fill="#FFFFFF" cx="3.91767368" cy="3.72277794" rx="1.65885907" ry="1.65885907"></ellipse>
                                        </g>
                                        <path d="M68.4075042,5.88549189 C65.7858422,6.88871094 61.5771722,2.47436749 51.940162,6.31480138 C50.1834059,7.01534826 49.13528,0.326023738 59.4647539,0.326023738 C68.4075042,0.326023738 69.9918179,5.2792494 68.4075042,5.88549189 L68.4075042,5.88549189 Z" id="Shape" fill="#BF904B"></path>
                                    </g>
                                    <path d="M64.2311671,83.4459105 C58.7525312,83.4459105 55.4527758,79.3531001 55.4527758,81.3343903 C55.4527758,83.3138843 57.0370895,87.0770784 64.2311671,87.0770784 C71.4252446,87.0770784 73.0086602,83.3147825 73.0086602,81.3343903 C73.0086602,79.3539982 69.7089047,83.4459105 64.2311671,83.4459105 L64.2311671,83.4459105 Z" id="Shape" fill="#FCBC85"></path>
                                    <path d="M64.2311671,101.652046 C62.3369961,101.652046 61.1945658,100.23748 61.1945658,100.920962 C61.1945658,101.606241 61.7424294,102.907642 64.2311671,102.907642 C66.7199047,102.907642 67.2668702,101.606241 67.2668702,100.920962 C67.2659721,100.23748 66.125338,101.652046 64.2311671,101.652046 L64.2311671,101.652046 Z" id="Shape" fill="#FCBC85"></path>
                                    <path d="M64.2311671,96.6072103 C55.5479784,96.6072103 50.3163302,93.0712449 50.3163302,93.9675856 C50.3163302,94.8639264 52.8275213,98.3900123 64.2311671,98.3900123 C75.6348128,98.3900123 78.1451058,94.8630282 78.1451058,93.9675856 C78.1451058,93.072143 72.9134576,96.6072103 64.2311671,96.6072103 L64.2311671,96.6072103 Z" id="Shape" fill="#F7945E"></path>
                                </g>
                                <ellipse id="Oval" fill="#F9AA8D" cx="32.1551016" cy="81.4924624" rx="7.52459195" ry="7.52459195"></ellipse>
                                <ellipse id="Oval" fill="#F9AA8D" cx="97.2314156" cy="81.4924624" rx="7.52369381" ry="7.52369381"></ellipse>
                            </g>
                            <path d="M71.4162632,152.077949 L71.4162632,185.34225 L13.5995907,185.34225 C13.5995907,171.878278 41.0547413,152.077949 71.4162632,152.077949 L71.4162632,152.077949 Z" id="Shape" fill="#9D777B"></path>
                            <path d="M71.4162632,152.077949 L71.4162632,185.34225 L129.231139,185.34225 C129.231139,171.878278 101.775989,152.077949 71.4162632,152.077949 L71.4162632,152.077949 Z" id="Shape" fill="#9D777B"></path>
                            <path d="M42.036405,158.121513 L57.6990165,185.343148 L71.4153651,185.343148 L71.4153651,181.336559 L52.0946415,154.713083 C48.591009,155.648044 45.228384,156.794965 42.036405,158.121513 L42.036405,158.121513 Z" id="Shape" fill="#7B5C60"></path>
                            <path d="M100.794325,158.121513 L85.1308155,185.343148 L71.4153651,185.343148 L71.4153651,181.336559 L90.7360886,154.713083 C94.2397212,155.648044 97.6023462,156.794965 100.794325,158.121513 L100.794325,158.121513 Z" id="Shape" fill="#7B5C60"></path>
                            <path d="M49.9552791,155.280706 C55.0117906,164.325843 66.3435853,185.343148 71.4162632,185.343148 L71.4162632,152.078847 C63.9644204,152.077949 56.6948993,153.281453 49.9552791,155.280706 L49.9552791,155.280706 Z" id="Shape" fill="#FFFFFF"></path>
                            <path d="M92.875451,155.280706 C87.8198377,164.325843 76.488043,185.343148 71.4153651,185.343148 L71.4153651,152.078847 C78.8663098,152.077949 86.136729,153.281453 92.875451,155.280706 L92.875451,155.280706 Z" id="Shape" fill="#FFFFFF"></path>
                            <path d="M111.941104,18.5968251 C111.941104,18.5968251 93.6694041,-5.82352043 57.5014264,1.30409495 C21.3325505,8.43260847 -0.490382812,38.4034408 0.265848558,68.5197713 C1.45408383,115.816565 30.237579,125.108691 37.0598278,132.93326 C31.7248939,121.422736 23.8949354,99.3824537 25.4792491,84.7562924 C26.6701788,73.7586046 31.8165039,70.0771409 31.8165039,70.0771409 C43.3728329,76.1018441 49.6364405,63.142625 49.6364405,63.142625 C51.2207542,75.1965219 74.4528645,57.4044276 74.4528645,57.4044276 C74.4528645,57.4044276 71.8132398,64.9433897 80.1955526,67.3450081 C88.5778654,69.7475246 104.418308,51.2656611 104.418308,51.2656611 C104.418308,51.2656611 104.68236,72.2946412 115.374681,72.175189 C115.374681,72.175189 118.65827,78.664229 117.866114,90.8268005 C117.073957,102.989372 111.942002,119.577065 108.064744,130.559484 C118.146332,124.84374 140.190207,111.6537 140.190207,75.1947257 C140.189309,38.7375478 131.740534,21.8965805 111.941104,18.5968251 L111.941104,18.5968251 Z" id="Shape" fill="#BF904B"></path>
                            <path d="M58.2154453,153.354202 C58.2154453,153.354202 62.0765364,163.931561 71.4153651,163.931561 C80.7541938,163.931561 84.6152849,153.354202 84.6152849,153.354202 C84.6152849,153.354202 70.9213897,148.367745 58.2154453,153.354202 L58.2154453,153.354202 Z" id="Shape" fill="#FDCC9B"></path>
                            <path d="M54.5483519,154.082591 C56.7532782,159.953712 61.4999324,167.749542 71.4153651,167.749542 C81.3298996,167.749542 86.0774519,159.953712 88.2814802,154.082591 C82.8755934,152.820708 77.2038582,152.077949 71.4153651,152.077949 C65.6259739,152.077949 59.9551367,152.81981 54.5483519,154.082591 L54.5483519,154.082591 Z" id="Shape" fill="#C7C5C4"></path>
                            <path d="M84.616183,153.354202 C84.616183,153.354202 82.8998431,163.931561 71.4162632,163.931561 C59.9317852,163.931561 58.2163434,153.354202 58.2163434,153.354202 C58.2163434,153.354202 63.3635667,150.401127 71.4162632,150.401127 C79.4671635,150.401127 84.616183,153.354202 84.616183,153.354202 L84.616183,153.354202 Z" id="Shape" fill="#FDCC9B"></path>
                        </g>
                    </g>
                </g>
                <g id="boy-(1)" transform="translate(321.533053, 0.105469)">
                    <g id="Capa_1">
                        <g id="Group">
                            <path d="M80.545826,175.209468 L80.545826,154.272996 C80.545826,154.272996 113.778692,153.266184 113.778692,173.380861 L80.545826,175.209468 L80.545826,175.209468 Z" id="Shape" fill="#524039"></path>
                            <path d="M77.6987317,175.209468 L77.6987317,154.272996 C77.6987317,154.272996 44.4658657,153.266184 44.4658657,173.380861 L77.6987317,175.209468 L77.6987317,175.209468 Z" id="Shape" fill="#524039"></path>
                            <g transform="translate(14.370192, 42.212440)">
                                <rect id="Rectangle-path" fill="#FDCC9B" x="51.4803158" y="112.059658" width="26.4007377" height="29.5684669"></rect>
                                <path d="M51.4803158,115.541735 C51.4803158,115.541735 62.58578,122.613666 77.8810535,120.975464 L77.8810535,112.05876 L51.4803158,112.05876 L51.4803158,115.541735 L51.4803158,115.541735 Z" id="Shape" fill="#FCBC85"></path>
                                <ellipse id="Oval" fill="#FCBC85" cx="13.4118801" cy="66.2097629" rx="12.8819793" ry="14.6971142"></ellipse>
                                <ellipse id="Oval" fill="#FCBC85" cx="115.950387" cy="66.2097629" rx="12.8819793" ry="14.6971142"></ellipse>
                                <path d="M115.898295,38.1375922 C115.898295,16.4888975 100.057853,0.648454928 64.6820319,0.648454928 C29.3044147,0.648454928 13.4648702,16.4888975 13.4648702,38.1375922 C13.4648702,59.786287 9.76903636,116.811701 64.6820319,116.811701 C119.594129,116.811701 115.898295,59.786287 115.898295,38.1375922 L115.898295,38.1375922 Z" id="Shape" fill="#FDCC9B"></path>
                                <g transform="translate(29.638522, 39.518029)">
                                    <g transform="translate(4.490685, 17.064603)" id="Oval">
                                        <ellipse fill="#3B2519" cx="5.60527314" cy="6.10733173" rx="5.54419982" ry="6.07230439"></ellipse>
                                        <ellipse fill="#FFFFFF" cx="3.18838642" cy="3.42639273" rx="1.65796094" ry="1.65796094"></ellipse>
                                    </g>
                                    <path d="M1.22685517,8.12364934 C3.84761899,9.43492939 8.05808534,3.66888972 17.6941974,8.68498498 C19.4500553,9.59928846 20.4990793,0.864007813 10.1696055,0.864007813 C1.22685517,0.864007813 -0.356560397,7.33239063 1.22685517,8.12364934 L1.22685517,8.12364934 Z" id="Shape" fill="#401900"></path>
                                    <g transform="translate(54.786358, 17.064603)" id="Oval">
                                        <ellipse fill="#3B2519" cx="5.88728816" cy="6.10733173" rx="5.54419982" ry="6.07230439"></ellipse>
                                        <ellipse fill="#FFFFFF" cx="3.47040144" cy="3.42639273" rx="1.65885907" ry="1.65885907"></ellipse>
                                    </g>
                                    <path d="M68.858369,8.12364934 C66.236707,9.43492939 62.028037,3.66888972 52.3910267,8.68498498 C50.6342707,9.59928846 49.5861448,0.864007813 59.9156187,0.864007813 C68.858369,0.864007813 70.4417846,7.33239063 68.858369,8.12364934 L68.858369,8.12364934 Z" id="Shape" fill="#401900"></path>
                                </g>
                                <path d="M64.6811337,84.0485604 C59.2024979,84.0485604 55.9027425,79.9566481 55.9027425,81.9361421 C55.9027425,83.9165343 57.4870562,87.6788302 64.6811337,87.6788302 C71.8752112,87.6788302 73.4586268,83.9165343 73.4586268,81.9361421 C73.4595249,79.95575 70.1588714,84.0485604 64.6811337,84.0485604 L64.6811337,84.0485604 Z" id="Shape" fill="#FCBC85"></path>
                                <path d="M64.6811337,102.253798 C62.7860646,102.253798 61.6445325,100.838334 61.6445325,101.523612 C61.6445325,102.208891 62.192396,103.509393 64.6811337,103.509393 C67.1689733,103.509393 67.7168368,102.208891 67.7168368,101.523612 C67.7168368,100.838334 66.5762028,102.253798 64.6811337,102.253798 L64.6811337,102.253798 Z" id="Shape" fill="#FCBC85"></path>
                                <path d="M64.6811337,97.2089621 C55.9970469,97.2089621 50.7662969,93.6729967 50.7662969,94.5693374 C50.7662969,95.4656782 53.2765898,98.9917641 64.6811337,98.9917641 C76.0847794,98.9917641 78.5950724,95.4656782 78.5950724,94.5693374 C78.5950724,93.6729967 73.3643224,97.2089621 64.6811337,97.2089621 L64.6811337,97.2089621 Z" id="Shape" fill="#F7945E"></path>
                            </g>
                            <path d="M79.051326,166.151756 L79.051326,199.416955 L14.899195,199.416955 C14.899195,185.952085 48.6907022,166.151756 79.051326,166.151756 L79.051326,166.151756 Z" id="Shape" fill="#81665D"></path>
                            <path d="M79.051326,166.151756 L79.051326,199.416955 L143.202559,199.416955 C143.202559,185.952085 109.41195,166.151756 79.051326,166.151756 L79.051326,166.151756 Z" id="Shape" fill="#81665D"></path>
                            <polygon id="Shape" fill="#935125" points="79.1932317 199.416955 58.4920715 175.828284 65.8505081 177.807778 79.1932317 182.784355"></polygon>
                            <polygon id="Shape" fill="#935125" points="79.051326 199.416955 99.7533843 175.828284 92.3940496 177.807778 79.051326 182.784355"></polygon>
                            <path d="M78.7540427,166.151756 C71.7880919,166.151756 64.6443101,167.203474 57.7663768,168.972804 C59.2842284,174.954397 64.0066328,184.26718 78.7540427,184.26718 C93.5005544,184.26718 98.2229588,174.955295 99.7417085,168.972804 C92.8637752,167.203474 85.7199934,166.151756 78.7540427,166.151756 L78.7540427,166.151756 Z" id="Shape" fill="#5D2F06"></path>
                            <path d="M65.8505081,167.303168 C65.8505081,167.303168 65.8505081,179.589682 79.051326,179.589682 C92.2512458,179.589682 92.2512458,167.303168 92.2512458,167.303168 C92.2512458,167.303168 78.5564525,162.317609 65.8505081,167.303168 L65.8505081,167.303168 Z" id="Shape" fill="#FDCC9B"></path>
                            <path d="M153.368572,72.3557145 C159.704928,66.918393 153.368572,58.5531448 153.368572,58.5531448 C157.328458,48.9340974 148.616529,43.9153077 148.616529,43.9153077 C149.408686,33.4591965 140.300678,31.7859672 140.300678,31.7859672 C138.715466,22.1669198 130.32058,22.5845535 130.32058,22.5845535 C126.67594,12.1284423 117.437702,13.8016716 117.437702,13.8016716 C113.978977,5.01878966 103.996184,7.94671635 103.996184,7.94671635 C98.1861352,0.418531851 90.0795505,6.69201893 90.0795505,6.69201893 C89.361939,3.3455604 86.0469153,0 79.051326,0 C72.0548386,0 68.740713,3.3455604 68.0222034,6.69201893 C68.0222034,6.69201893 59.9156187,0.418531851 54.1046722,7.94671635 C54.1046722,7.94671635 44.1218792,5.01878966 40.6640517,13.8016716 C40.6640517,13.8016716 31.4258143,12.1284423 27.7820724,22.5845535 C27.7820724,22.5845535 19.3862876,22.1660216 17.8019739,31.7859672 C17.8019739,31.7859672 8.69306821,33.4591965 9.48522506,43.9153077 C9.48522506,43.9153077 0.773295974,48.9340974 4.73318209,58.5531448 C4.73318209,58.5531448 -1.60317458,66.9174949 4.73318209,72.3557145 C4.73318209,72.3557145 -4.37482542,80.709287 3.94102524,87.8252266 C-1.999253,100.22311 7.90091136,106.771427 7.90091136,106.771427 C3.94102524,120.693449 17.009817,123.548627 17.009817,123.548627 C17.4391265,132.676393 27.7820724,133.837684 27.7820724,133.837684 C27.7820724,133.837684 30.0786088,140.529703 36.7787109,136.569817 C43.477915,132.609931 34.0384949,118.362783 34.0384949,118.362783 C39.5826947,112.089296 34.0384949,101.974477 34.0384949,101.974477 C40.2949174,97.1775273 34.0384949,87.8261247 34.0384949,87.8261247 C42.3543456,86.9836722 40.6640517,76.1207049 40.6640517,76.1207049 C48.8748203,77.7939342 53.3457464,68.917646 53.3457464,68.917646 C62.7537317,73.0068639 68.0222034,66.5016575 68.0222034,66.5016575 C75.8692266,71.938979 79.051326,66.5016575 79.051326,66.5016575 C79.051326,66.5016575 82.2334255,71.938979 90.0795505,66.5016575 C90.0795505,66.5016575 95.3480222,73.007762 104.756008,68.917646 C104.756008,68.917646 109.227832,77.7939342 117.437702,76.1207049 C117.437702,76.1207049 115.747408,86.9836722 124.064157,87.8261247 C124.064157,87.8261247 117.807735,97.1775273 124.064157,101.974477 C124.064157,101.974477 118.519957,112.089296 124.064157,118.362783 C124.064157,118.362783 114.623839,132.610829 121.323043,136.569817 C128.024043,140.528805 130.32058,133.837684 130.32058,133.837684 C130.32058,133.837684 140.664424,132.676393 141.091937,123.548627 C141.091937,123.548627 154.160729,120.693449 150.200843,106.771427 C150.200843,106.771427 160.101007,100.22311 154.160729,87.8252266 C162.477477,80.709287 153.368572,72.3557145 153.368572,72.3557145 L153.368572,72.3557145 Z" id="Shape" fill="#401900"></path>
                            <path d="M58.9204829,168.633309 C59.3156632,166.063739 43.5443771,167.95791 43.6737088,175.209468 C43.8039387,182.461026 61.0984651,188.037559 65.8505081,190.678082 C70.6025511,193.317706 79.051326,199.416955 79.051326,199.416955 C79.051326,199.416955 80.6347416,193.29166 73.2430739,188.565663 C65.8505081,183.840565 58.3923783,172.065988 58.9204829,168.633309 L58.9204829,168.633309 Z" id="Shape" fill="#614C45"></path>
                            <path d="M99.3240748,168.633309 C98.9288945,166.063739 114.699282,167.95791 114.570849,175.209468 C114.440619,182.461026 97.1460925,188.037559 92.3940496,190.678082 C87.6420066,193.317706 79.0522242,199.416955 79.0522242,199.416955 C79.0522242,199.416955 77.6107142,193.29166 85.0023819,188.565663 C92.3940496,183.840565 99.8521794,172.065988 99.3240748,168.633309 L99.3240748,168.633309 Z" id="Shape" fill="#614C45"></path>
                        </g>
                    </g>
                </g>
                <g id="boy" transform="translate(158.072115, 7.290565)">
                    <g id="Capa_1">
                        <g id="Group">
                            <path d="M23.2644432,124.662316 C23.2644432,124.662316 28.3685559,134.933411 23.2644432,147.431886 C20.1919165,154.956478 29.6960024,150.204435 32.4676532,147.431886 C32.4676532,147.431886 35.2402022,156.31985 29.6960024,163.360346 C24.1518026,170.399944 40.1260676,168.133046 45.0092386,153.623643 C45.0092386,153.623643 47.7000571,166.04398 38.6980297,175.152885 C29.6960024,184.260893 76.4368492,180.697085 76.4368492,180.697085 L76.4368492,121.031148 L23.2644432,124.662316 L23.2644432,124.662316 Z" id="Shape" fill="#684B37"></path>
                            <path d="M130.25771,124.662316 C130.25771,124.662316 125.153597,134.933411 130.25771,147.431886 C133.330237,154.956478 123.826151,150.204435 121.0545,147.431886 C121.0545,147.431886 118.282849,156.31985 123.826151,163.360346 C129.370351,170.399944 113.396086,168.133046 108.512915,153.623643 C108.512915,153.623643 105.822096,166.04398 114.824123,175.152885 C123.826151,184.260893 77.0853041,180.697085 77.0853041,180.697085 L77.0853041,121.031148 L130.25771,124.662316 L130.25771,124.662316 Z" id="Shape" fill="#543C2A"></path>
                            <g transform="translate(12.573918, 36.823618)">
                                <rect id="Rectangle-path" fill="#FDCC9B" x="51.3105679" y="112.219526" width="26.4007377" height="29.5693651"></rect>
                                <path d="M51.311466,115.702502 C51.311466,115.702502 62.4169303,122.774432 77.7113056,121.137129 L77.7113056,112.219526 L51.311466,112.219526 L51.311466,115.702502 L51.311466,115.702502 Z" id="Shape" fill="#FCBC85"></path>
                                <ellipse id="Oval" fill="#FCBC85" cx="13.2421322" cy="66.3696313" rx="12.8819793" ry="14.6971142"></ellipse>
                                <ellipse id="Oval" fill="#FCBC85" cx="115.780639" cy="66.3696313" rx="12.8819793" ry="14.6971142"></ellipse>
                                <path d="M115.728547,38.2974606 C115.728547,16.6487659 99.8881049,0.808323317 64.5113858,0.808323317 C29.1346668,0.808323317 13.2942242,16.6487659 13.2942242,38.2974606 C13.2942242,59.9461553 9.59839032,116.971569 64.5113858,116.971569 C119.424381,116.972467 115.728547,59.9461553 115.728547,38.2974606 L115.728547,38.2974606 Z" id="Shape" fill="#FDCC9B"></path>
                                <g transform="translate(29.638522, 40.416166)">
                                    <g transform="translate(3.592548, 16.166466)" id="Oval">
                                        <ellipse fill="#3B2519" cx="6.33366226" cy="6.26809826" rx="5.54419982" ry="6.07230439"></ellipse>
                                        <ellipse fill="#FFFFFF" cx="3.91677554" cy="3.58715925" rx="1.65796094" ry="1.65796094"></ellipse>
                                    </g>
                                    <path d="M1.05710727,7.38627885 C3.67876923,8.69666076 7.88833744,2.93151923 17.5244495,7.94761448 C19.2812055,8.86191797 20.3293314,0.125739183 10.0007557,0.125739183 C1.05710727,0.125739183 -0.52720643,6.594122 1.05710727,7.38627885 L1.05710727,7.38627885 Z" id="Shape" fill="#684B37"></path>
                                    <g transform="translate(54.786358, 16.166466)" id="Oval">
                                        <ellipse fill="#3B2519" cx="5.71754026" cy="6.26809826" rx="5.54419982" ry="6.07230439"></ellipse>
                                        <ellipse fill="#FFFFFF" cx="3.30065355" cy="3.58715925" rx="1.65796094" ry="1.65796094"></ellipse>
                                    </g>
                                    <path d="M68.6886211,7.38627885 C66.0669591,8.69666076 61.8573909,2.93151923 52.2212788,7.94761448 C50.4645228,8.86191797 49.4163969,0.125739183 59.7458708,0.125739183 C68.6886211,0.125739183 70.2729348,6.594122 68.6886211,7.38627885 L68.6886211,7.38627885 Z" id="Shape" fill="#684B37"></path>
                                </g>
                                <path d="M64.5113858,84.2084288 C59.03275,84.2084288 55.7329946,80.1156184 55.7329946,82.0960105 C55.7329946,84.0755045 57.3173083,87.8386986 64.5113858,87.8386986 C71.7054633,87.8386986 73.289777,84.0764026 73.289777,82.0960105 C73.289777,80.1165165 69.9891235,84.2084288 64.5113858,84.2084288 L64.5113858,84.2084288 Z" id="Shape" fill="#FCBC85"></path>
                                <path d="M64.5113858,102.414564 C62.6163167,102.414564 61.4747846,100.999998 61.4747846,101.683481 C61.4747846,102.368759 62.0226481,103.67016 64.5113858,103.67016 C67.0001235,103.67016 67.5470889,102.368759 67.5470889,101.683481 C67.5470889,100.9991 66.4055568,102.414564 64.5113858,102.414564 L64.5113858,102.414564 Z" id="Shape" fill="#FCBC85"></path>
                                <path d="M64.5113858,97.3688305 C55.8281971,97.3688305 50.596549,93.8328651 50.596549,94.7292058 C50.596549,95.6255466 53.1077401,99.1516325 64.5113858,99.1516325 C75.9150316,99.1516325 78.4262227,95.6246484 78.4262227,94.7292058 C78.4262227,93.8337632 73.1945745,97.3688305 64.5113858,97.3688305 L64.5113858,97.3688305 Z" id="Shape" fill="#F7945E"></path>
                            </g>
                            <path d="M77.0853041,160.9237 L77.0853041,194.188001 L12.9340712,194.188001 C12.9340712,180.724029 46.7246803,160.9237 77.0853041,160.9237 L77.0853041,160.9237 Z" id="Shape" fill="#C1B397"></path>
                            <path d="M77.0853041,160.9237 L77.0853041,194.188001 L141.236537,194.188001 C141.236537,180.724029 107.445928,160.9237 77.0853041,160.9237 L77.0853041,160.9237 Z" id="Shape" fill="#C1B397"></path>
                            <path d="M11.083909,103.193249 C4.44937079,70.5324964 12.6682227,45.6585916 9.49959525,42.094784 C6.33186599,38.5309763 1.18374459,43.2830192 0.787666166,40.5104703 C0.39158774,37.7388194 9.10351683,33.3819567 12.9340712,29.0259922 C16.7637275,24.6700276 15.8359519,11.2051575 19.3997596,15.1650436 C22.9635673,19.1258278 19.3997596,28.2338353 19.3997596,28.2338353 C60.5847308,-28.3955 128.698544,14.3737849 136.222238,34.1741136 C143.745932,53.9744423 156.022567,67.8353909 150.874445,67.8353909 C144.842557,67.8353909 141.236537,59.5195403 141.236537,59.5195403 C141.236537,59.5195403 146.914559,75.3599829 144.14201,98.6513702 C141.370359,121.943656 116.422807,136.057879 120.14828,129.900252 C127.770769,117.30388 121.965211,93.6020439 121.965211,93.6020439 C121.569133,96.0045604 117.609246,99.515378 117.479915,95.3345502 C116.827867,74.115165 104.540455,67.8353909 104.540455,67.8353909 C104.540455,67.8353909 108.896419,74.567826 102.71544,74.1717476 C84.190466,72.9853086 72.0683107,65.4598185 72.0683107,65.4598185 C72.0683107,65.4598185 76.4242752,74.1717476 72.0683107,74.1717476 C57.3945481,74.1717476 42.7288687,65.4598185 42.7288687,65.4598185 C42.7288687,65.4598185 35.3596544,80.5018173 35.5626334,93.602942 C35.6353825,98.328939 30.8833395,93.1799195 30.8833395,89.6161118 C30.8833395,89.6161118 25.6930057,117.521229 34.7821523,131.345354 C38.7779639,137.420353 15.2683293,123.796512 11.083909,103.193249 L11.083909,103.193249 Z" id="Shape" fill="#684B37"></path>
                            <path d="M55.0261608,164.024968 L77.0853041,194.188001 L77.0853041,177.5563 L67.1770565,161.595507 C63.0860424,162.125408 59.0085003,162.95349 55.0261608,164.024968 L55.0261608,164.024968 Z" id="Shape" fill="#9D937C"></path>
                            <path d="M99.1435493,164.024968 L77.0853041,194.188001 L77.0853041,177.5563 L86.9935517,161.595507 C91.0836677,162.125408 95.1621079,162.95349 99.1435493,164.024968 L99.1435493,164.024968 Z" id="Shape" fill="#9D937C"></path>
                            <path d="M63.8853843,162.075112 L77.0853041,182.478989 L90.2852239,162.074214 C90.2852239,162.074214 76.5904306,157.088655 63.8853843,162.075112 L63.8853843,162.075112 Z" id="Shape" fill="#FDCC9B"></path>
                        </g>
                    </g>
                </g>
                <g id="girl-(1)" transform="translate(255.070913, 109.678185)">
                    <g id="Capa_1">
                        <g id="Group">
                            <path d="M66.8411532,99.1606139 L66.8411532,181.794608 L9.02537891,181.794608 C9.02537891,181.794608 9.02717518,146.35502 2.68902224,118.124777 L66.8411532,99.1606139 L66.8411532,99.1606139 Z" id="Shape" fill="#1C0D06"></path>
                            <path d="M66.3965754,99.1606139 L66.3965754,181.794608 L124.21235,181.794608 C124.21235,181.794608 124.210553,146.35502 130.548706,118.124777 L66.3965754,99.1606139 L66.3965754,99.1606139 Z" id="Shape" fill="#1C0D06"></path>
                            <g transform="translate(1.796274, 25.147837)">
                                <g>
                                    <rect id="Rectangle-path" fill="#FDCC9B" x="51.8440613" y="111.501915" width="26.4007377" height="29.5684669"></rect>
                                    <path d="M51.8440613,114.983992 C51.8440613,114.983992 62.9495255,122.055923 78.244799,120.417721 L78.244799,111.501017 L51.8440613,111.501017 L51.8440613,114.983992 L51.8440613,114.983992 Z" id="Shape" fill="#FCBC85"></path>
                                    <ellipse id="Oval" fill="#FCBC85" cx="13.7747275" cy="65.6520198" rx="12.8819793" ry="14.6971142"></ellipse>
                                    <ellipse id="Oval" fill="#FCBC85" cx="116.313235" cy="65.6520198" rx="12.8819793" ry="14.6971142"></ellipse>
                                    <path d="M116.261143,37.5798492 C116.261143,15.9320526 100.4207,0.0907118389 65.0439811,0.0907118389 C29.667262,0.0907118389 13.8277175,15.9311544 13.8277175,37.5798492 C13.8277175,59.2285439 10.1318837,116.253958 65.0439811,116.253958 C119.956977,116.253958 116.261143,59.2285439 116.261143,37.5798492 L116.261143,37.5798492 Z" id="Shape" fill="#FDCC9B"></path>
                                    <g transform="translate(30.536659, 43.110577)">
                                        <g transform="translate(3.592548, 12.573918)" id="Oval">
                                            <ellipse fill="#3B2519" cx="5.96812049" cy="6.44772566" rx="5.54419982" ry="6.07230439"></ellipse>
                                            <ellipse fill="#FFFFFF" cx="3.55123377" cy="3.76678666" rx="1.65796094" ry="1.65796094"></ellipse>
                                        </g>
                                        <path d="M0.691565505,5.9295006 C3.31322746,6.93361779 7.52189754,2.5183762 17.1589078,6.3588101 C18.9156638,7.05935697 19.9637897,0.370032452 9.63431581,0.370032452 C0.691565505,0.370032452 -0.89185006,5.32325811 0.691565505,5.9295006 L0.691565505,5.9295006 Z" id="Shape" fill="#36221E"></path>
                                        <g transform="translate(53.888221, 12.573918)" id="Oval">
                                            <ellipse fill="#3B2519" cx="6.25103365" cy="6.44772566" rx="5.54419982" ry="6.07230439"></ellipse>
                                            <ellipse fill="#FFFFFF" cx="3.8332488" cy="3.76678666" rx="1.65796094" ry="1.65796094"></ellipse>
                                        </g>
                                        <path d="M68.3230793,5.9295006 C65.7014174,6.93361779 61.4918492,2.5183762 51.8557371,6.3588101 C50.0989811,7.05935697 49.0508552,0.370032452 59.3794309,0.370032452 C68.3230793,0.370032452 69.907393,5.32325811 68.3230793,5.9295006 L68.3230793,5.9295006 Z" id="Shape" fill="#36221E"></path>
                                    </g>
                                    <path d="M65.0439811,83.4908173 C59.5662434,83.4908173 56.266488,79.398905 56.266488,81.378399 C56.266488,83.3587912 57.8508017,87.1210871 65.0439811,87.1210871 C72.2389567,87.1210871 73.8223723,83.3587912 73.8223723,81.378399 C73.8223723,79.3980069 70.5217188,83.4908173 65.0439811,83.4908173 L65.0439811,83.4908173 Z" id="Shape" fill="#FCBC85"></path>
                                    <path d="M65.0439811,101.696055 C63.1498101,101.696055 62.0082779,100.280591 62.0082779,100.965869 C62.0082779,101.651148 62.5552434,102.95165 65.0439811,102.95165 C67.5327187,102.95165 68.0805823,101.651148 68.0805823,100.965869 C68.0805823,100.280591 66.938152,101.696055 65.0439811,101.696055 L65.0439811,101.696055 Z" id="Shape" fill="#FCBC85"></path>
                                    <path d="M65.0439811,96.6512191 C56.3607924,96.6512191 51.1300424,93.1161517 51.1300424,94.0115944 C51.1300424,94.907037 53.6403353,98.434021 65.0439811,98.434021 C76.4476268,98.434021 78.9588179,94.9079351 78.9588179,94.0115944 C78.9588179,93.1152536 73.7271698,96.6512191 65.0439811,96.6512191 L65.0439811,96.6512191 Z" id="Shape" fill="#F7945E"></path>
                                </g>
                                <ellipse id="Oval" fill="#F9AA8D" cx="32.9679156" cy="81.5364712" rx="7.52369381" ry="7.52369381"></ellipse>
                                <ellipse id="Oval" fill="#F9AA8D" cx="98.0442296" cy="81.5364712" rx="7.52369381" ry="7.52369381"></ellipse>
                            </g>
                            <path d="M66.8402551,148.52941 L66.8402551,181.794608 L9.02537891,181.794608 C9.02537891,168.329738 36.4796313,148.52941 66.8402551,148.52941 L66.8402551,148.52941 Z" id="Shape" fill="#C05371"></path>
                            <path d="M66.8402551,148.52941 L66.8402551,181.794608 L124.656029,181.794608 C124.656029,168.329738 97.2008789,148.52941 66.8402551,148.52941 L66.8402551,148.52941 Z" id="Shape" fill="#C05371"></path>
                            <path d="M66.8402551,148.52941 L66.8402551,181.794608 L124.656029,181.794608 C124.656029,168.329738 97.2008789,148.52941 66.8402551,148.52941 L66.8402551,148.52941 Z" id="Shape" fill="#C05371"></path>
                            <path d="M66.8402551,148.52941 C53.7229639,148.52941 41.1589252,152.234225 31.1060775,157.518863 C38.7052148,169.060822 50.0190469,178.518205 66.8402551,178.518205 C83.6623615,178.518205 94.9761935,169.059924 102.574433,157.518863 C92.521585,152.234225 79.9575463,148.52941 66.8402551,148.52941 L66.8402551,148.52941 Z" id="Shape" fill="#98375E"></path>
                            <path d="M66.8402551,148.52941 C56.5664657,148.52941 46.6564219,150.82864 37.9992791,154.350236 C43.4572578,163.878571 52.3739621,172.659657 66.8402551,172.659657 C81.3065481,172.659657 90.2232524,163.878571 95.6821292,154.350236 C87.0240883,150.82864 77.1149426,148.52941 66.8402551,148.52941 L66.8402551,148.52941 Z" id="Shape" fill="#C05371"></path>
                            <path d="M53.6403353,149.80656 C53.6403353,149.80656 57.5023245,160.383022 66.8402551,160.383022 C76.1790838,160.383022 80.0401749,149.805662 80.0401749,149.805662 C80.0401749,149.805662 66.3453816,144.820104 53.6403353,149.80656 L53.6403353,149.80656 Z" id="Shape" fill="#FDCC9B"></path>
                            <path d="M66.8402551,148.52941 C58.967186,148.52941 51.3051791,149.879309 44.2512109,152.086032 C47.9910535,159.687864 54.7549234,167.694755 66.8402551,167.694755 C78.926485,167.694755 85.6894567,159.686966 89.4301974,152.086032 C82.3762293,149.879309 74.7124261,148.52941 66.8402551,148.52941 L66.8402551,148.52941 Z" id="Shape" fill="#98375E"></path>
                            <path d="M49.97414,150.534051 C52.1781683,156.406071 56.9257206,164.201002 66.8402551,164.201002 C76.7556878,164.201002 81.5032401,156.406071 83.7072683,150.534051 C78.3013816,149.272169 72.6296463,148.52941 66.8402551,148.52941 C61.0508639,148.52941 55.3800267,149.272169 49.97414,150.534051 L49.97414,150.534051 Z" id="Shape" fill="#C05371"></path>
                            <path d="M80.0401749,149.805662 C80.0401749,149.805662 78.3247332,160.383022 66.8402551,160.383022 C55.3566752,160.383022 53.6403353,149.80656 53.6403353,149.80656 C53.6403353,149.80656 58.7884567,146.852588 66.8402551,146.852588 C74.8929516,146.852588 80.0401749,149.805662 80.0401749,149.805662 L80.0401749,149.805662 Z" id="Shape" fill="#FDCC9B"></path>
                            <path d="M66.8402551,0.0107776442 L66.8402551,0 C66.7746911,0 66.7136178,0.0044906851 66.6480538,0.00538882212 C66.5815916,0.0044906851 66.5205183,0 66.4540562,0 L66.4540562,0.0107776442 C7.0090613,0.238904447 -2.84978876,51.9895595 0.706833834,102.962428 C4.27153966,154.047563 34.7641896,171.8675 34.7641896,171.8675 C18.1333864,154.443642 22.220808,114.2089 22.220808,114.2089 C29.476857,125.059293 39.4767145,125.926893 39.4767145,125.926893 C20.4299228,113.646666 21.2993194,71.2815427 34.7641896,68.6284459 C47.4656433,66.1262362 64.7260406,53.4535228 66.6480538,52.0218924 C68.5691689,53.454421 85.828668,66.1262362 98.5301217,68.6284459 C111.994992,71.2815427 112.865287,113.646666 93.8184949,125.926893 C93.8184949,125.926893 103.818352,125.059293 111.0753,114.2089 C111.0753,114.2089 115.162721,154.442744 98.5301217,171.8675 C98.5301217,171.8675 129.02367,154.047563 132.588376,102.962428 C136.1441,51.9895595 126.286148,0.238904447 66.8402551,0.0107776442 L66.8402551,0.0107776442 Z" id="Shape" fill="#342620"></path>
                        </g>
                    </g>
                </g>
                <g id="girl" transform="translate(73.647236, 94.409856)">
                    <g id="Capa_1">
                        <g id="Group">
                            <path d="M19.4231112,139.001972 C17.8387975,139.39805 20.2044904,155.621998 26.946805,163.949524 C26.946805,163.949524 26.5085141,152.177642 29.7445018,148.109081 C29.7445018,148.109081 41.0861761,153.917334 34.8090965,166.853201 C34.8090965,166.853201 41.5999105,167.568118 45.16282,156.651263 C45.16282,156.651263 42.4208077,166.914274 51.9105234,172.758452 C61.399341,178.60263 68.0707028,174.966971 68.0707028,174.966971 L68.0707028,120.917085 L16.8625225,120.917085 L19.4231112,139.001972 L19.4231112,139.001972 Z" id="Shape" fill="#371C06"></path>
                            <path d="M116.80721,139.001972 C118.391524,139.39805 116.025831,155.621998 109.283516,163.949524 C109.283516,163.949524 109.721807,152.177642 106.485819,148.109081 C106.485819,148.109081 95.1441451,153.917334 101.421225,166.853201 C101.421225,166.853201 94.6304108,167.568118 91.0666031,156.651263 C91.0666031,156.651263 93.8086154,166.914274 84.3197978,172.758452 C74.8309802,178.60263 68.1596184,174.966971 68.1596184,174.966971 L68.1596184,120.917085 L119.367799,120.917085 L116.80721,139.001972 L116.80721,139.001972 Z" id="Shape" fill="#371C06"></path>
                            <path d="M71.1674793,0 C24.6323059,0 36.2586896,46.335787 36.2586896,46.335787 L71.1674793,46.335787 L106.076269,46.335787 C106.076269,46.335787 117.704449,0 71.1674793,0 L71.1674793,0 Z" id="Shape" fill="#371C06"></path>
                            <g transform="translate(3.592548, 40.416166)">
                                <g>
                                    <rect id="Rectangle-path" fill="#FDCC9B" x="51.3393083" y="111.652802" width="26.4007377" height="29.5693651"></rect>
                                    <path d="M51.3393083,115.135777 C51.3393083,115.135777 62.4438744,122.207708 77.740046,120.570404 L77.740046,111.652802 L51.3393083,111.652802 L51.3393083,115.135777 L51.3393083,115.135777 Z" id="Shape" fill="#FCBC85"></path>
                                    <ellipse id="Oval" fill="#FCBC85" cx="13.2699745" cy="65.803805" rx="12.8819793" ry="14.6971142"></ellipse>
                                    <ellipse id="Oval" fill="#FCBC85" cx="115.808482" cy="65.803805" rx="12.8819793" ry="14.6971142"></ellipse>
                                    <path d="M115.75639,37.7316343 C115.75639,16.0829396 99.9159471,0.243395132 64.5401262,0.243395132 C29.162509,0.243395132 13.3229645,16.0838377 13.3229645,37.7316343 C13.3229645,59.380329 9.62713071,116.405743 64.5401262,116.405743 C119.452224,116.404845 115.75639,59.380329 115.75639,37.7316343 L115.75639,37.7316343 Z" id="Shape" fill="#FDCC9B"></path>
                                    <g transform="translate(29.638522, 43.110577)">
                                        <g transform="translate(3.592548, 12.573918)" id="Oval">
                                            <ellipse fill="#3B2519" cx="6.36150451" cy="6.60040895" rx="5.54419982" ry="6.07230439"></ellipse>
                                            <ellipse fill="#FFFFFF" cx="3.94461779" cy="3.91857181" rx="1.65796094" ry="1.65796094"></ellipse>
                                        </g>
                                        <path d="M1.08494952,6.08128576 C3.70661148,7.08450481 7.91617969,2.66926322 17.5522918,6.51059525 C19.3090478,7.21114213 20.3580718,0.521817608 10.028598,0.521817608 C1.08494952,0.521817608 -0.499364183,5.47504327 1.08494952,6.08128576 L1.08494952,6.08128576 Z" id="Shape" fill="#4C2D19"></path>
                                        <g transform="translate(54.786358, 12.573918)" id="Oval">
                                            <ellipse fill="#3B2519" cx="5.74538251" cy="6.60040895" rx="5.54419982" ry="6.07230439"></ellipse>
                                            <ellipse fill="#FFFFFF" cx="3.32849579" cy="3.91857181" rx="1.65885907" ry="1.65885907"></ellipse>
                                        </g>
                                        <path d="M68.7164633,6.08128576 C66.0948014,7.08450481 61.8861313,2.66926322 52.2491211,6.51059525 C50.4923651,7.21114213 49.4442392,0.521817608 59.773713,0.521817608 C68.7164633,0.521817608 70.2998789,5.47504327 68.7164633,6.08128576 L68.7164633,6.08128576 Z" id="Shape" fill="#4C2D19"></path>
                                    </g>
                                    <path d="M64.5392281,83.6426025 C59.0605922,83.6426025 55.7608368,79.5497921 55.7608368,81.5301842 C55.7608368,83.5096782 57.3451505,87.2719742 64.5392281,87.2719742 C71.7333056,87.2719742 73.3167212,83.5096782 73.3167212,81.5301842 C73.3176193,79.5497921 70.0178639,83.6426025 64.5392281,83.6426025 L64.5392281,83.6426025 Z" id="Shape" fill="#FCBC85"></path>
                                    <path d="M64.5392281,101.848738 C62.6450571,101.848738 61.5026268,100.433274 61.5026268,101.117654 C61.5026268,101.802035 62.0504904,103.104334 64.5392281,103.104334 C67.0279657,103.104334 67.5749312,101.802933 67.5749312,101.117654 C67.5749312,100.432376 66.4342972,101.848738 64.5392281,101.848738 L64.5392281,101.848738 Z" id="Shape" fill="#FCBC85"></path>
                                    <path d="M64.5392281,96.8030042 C55.8560394,96.8030042 50.6243912,93.2661406 50.6243912,94.1633795 C50.6243912,95.0588221 53.1355823,98.5858062 64.5392281,98.5858062 C75.9428738,98.5858062 78.4531668,95.0588221 78.4531668,94.1633795 C78.4531668,93.2670388 73.2224168,96.8030042 64.5392281,96.8030042 L64.5392281,96.8030042 Z" id="Shape" fill="#F7945E"></path>
                                </g>
                                <ellipse id="Oval" fill="#F9AA8D" cx="32.4631626" cy="81.6891544" rx="7.52459195" ry="7.52459195"></ellipse>
                                <ellipse id="Oval" fill="#F9AA8D" cx="97.5403747" cy="81.6891544" rx="7.52369381" ry="7.52369381"></ellipse>
                            </g>
                            <path d="M68.1317761,163.949524 L68.1317761,197.214723 L10.3160018,197.214723 C10.3160018,183.750751 37.7711523,163.949524 68.1317761,163.949524 L68.1317761,163.949524 Z" id="Shape" fill="#FDC16E"></path>
                            <path d="M68.1317761,163.949524 L68.1317761,197.214723 L125.946652,197.214723 C125.946652,183.750751 98.4923999,163.949524 68.1317761,163.949524 L68.1317761,163.949524 Z" id="Shape" fill="#FDC16E"></path>
                            <path d="M54.9318564,165.100936 L68.1317761,188.699486 C68.9212386,188.699486 81.3316959,165.100936 81.3316959,165.100936 C81.3316959,165.100936 67.6369026,160.115377 54.9318564,165.100936 L54.9318564,165.100936 Z" id="Shape" fill="#FDCC9B"></path>
                            <polygon id="Shape" fill="#F68E4D" points="68.1317761 197.214723 68.1317761 188.700384 63.7758116 182.166437"></polygon>
                            <polygon id="Shape" fill="#F68E4D" points="68.1317761 197.214723 68.1317761 188.700384 72.1365691 182.166437"></polygon>
                            <path d="M49.5196827,197.214723 L46.7893462,166.853201 C46.7893462,166.853201 40.9909736,166.60801 34.0223284,171.671706 L28.2347335,197.214723 L49.5196827,197.214723 L49.5196827,197.214723 Z" id="Shape" fill="#4D423E"></path>
                            <path d="M86.7438696,197.214723 L89.4742061,166.853201 C89.4742061,166.853201 95.2725787,166.60801 102.241224,171.671706 L108.029717,197.214723 L86.7438696,197.214723 L86.7438696,197.214723 Z" id="Shape" fill="#4D423E"></path>
                            <path d="M68.1317761,16.6343957 C-13.4460093,16.6343957 -2.75458624,106.131953 7.93773498,127.68814 C18.6300562,149.243428 7.93773498,163.948626 7.93773498,163.948626 C26.15375,156.424932 22.7219684,127.68814 22.7219684,127.68814 C28.5823125,134.459195 39.2234399,136.717111 39.2234399,136.717111 C23.3838954,130.077184 16.9011424,80.7955081 42.842034,78.8070328 C68.7838236,76.8185574 97.0392142,67.3225547 97.0392142,67.3225547 C97.0392142,67.3225547 115.063028,117.008393 102.487313,136.717111 C102.487313,136.717111 111.270195,130.737315 115.639632,121.404773 C115.639632,121.404773 111.691422,148.90034 129.116178,163.948626 C129.116178,163.948626 120.00817,137.865829 129.116178,121.404773 C138.225084,104.944616 149.709562,16.6343957 68.1317761,16.6343957 L68.1317761,16.6343957 Z" id="Shape" fill="#4C2D19"></path>
                            <path d="M54.9318564,161.23266 L62.5974558,169.252125 L68.1317761,188.700384 L60.2120039,176.820726 L51.3015865,181.639231 L43.5803026,167.752236 C43.5803026,167.751338 50.2453774,161.683524 54.9318564,161.23266 L54.9318564,161.23266 Z" id="Shape" fill="#F68E4D"></path>
                            <path d="M81.3316959,161.23266 L73.6651983,169.252125 L68.1317761,188.700384 L76.0515484,176.820726 L84.9610676,181.639231 L92.6832497,167.752236 C92.6832497,167.751338 86.0181749,161.683524 81.3316959,161.23266 L81.3316959,161.23266 Z" id="Shape" fill="#F68E4D"></path>
                        </g>
                    </g>
                </g>
            </g>
        </g>
    </g>
</svg>